<svg xmlns="http://www.w3.org/2000/svg" version="1.1" xmlns:xlink="http://www.w3.org/1999/xlink" width="200" height="200"><svg xmlns="http://www.w3.org/2000/svg" version="1.1" xmlns:xlink="http://www.w3.org/1999/xlink" viewBox="0 0 200 200"><rect width="200" height="200" fill="url('#gradient')"></rect><defs><linearGradient id="SvgjsLinearGradient1001" gradientTransform="rotate(45 0.5 0.5)"><stop offset="0%" stop-color="#d6ce5c"></stop><stop offset="100%" stop-color="#d97e71"></stop></linearGradient></defs><g><g fill="#2e3f4e" transform="matrix(3.4838851289555515,0,0,3.4838851289555515,7.10216473488282,125.80039527914697)" stroke="#5b8d84" stroke-width="0.1"><path d="M9.98 0L9.15-2.66L4.45-2.66L3.63 0L-0.03 0L5.19-14.22L8.41-14.22L13.66 0L9.98 0ZM6.80-10.23L5.27-5.30L8.33-5.30L6.80-10.23ZM14.01-10.57L17.10-10.57L17.21-9.33Q18.30-10.76 20.22-10.76L20.22-10.76Q21.88-10.76 22.69-9.78Q23.51-8.79 23.54-6.81L23.54-6.81L23.54 0L20.23 0L20.23-6.67Q20.23-7.47 19.91-7.85Q19.59-8.22 18.74-8.22L18.74-8.22Q17.77-8.22 17.30-7.46L17.30-7.46L17.30 0L14.01 0L14.01-10.57ZM31.90 0L29.60-3.94L28.67-3.01L28.67 0L25.38 0L25.38-15.01L28.67-15.01L28.67-7.04L29.00-7.48L31.48-10.57L35.43-10.57L31.73-6.22L35.67 0L31.90 0ZM45.54 0L42.25 0Q42.07-0.32 41.93-0.95L41.93-0.95Q41.03 0.20 39.39 0.20L39.39 0.20Q37.90 0.20 36.86-0.71Q35.81-1.61 35.81-2.98L35.81-2.98Q35.81-4.70 37.08-5.58Q38.35-6.46 40.77-6.46L40.77-6.46L41.79-6.46L41.79-7.01Q41.79-8.47 40.53-8.47L40.53-8.47Q39.36-8.47 39.36-7.31L39.36-7.31L36.06-7.31Q36.06-8.85 37.37-9.80Q38.67-10.76 40.69-10.76Q42.71-10.76 43.89-9.78Q45.06-8.79 45.09-7.07L45.09-7.07L45.09-2.39Q45.11-0.94 45.54-0.17L45.54-0.17L45.54 0ZM40.19-2.15L40.19-2.15Q40.80-2.15 41.21-2.41Q41.61-2.68 41.79-3.01L41.79-3.01L41.79-4.70L40.83-4.70Q39.11-4.70 39.11-3.15L39.11-3.15Q39.11-2.71 39.41-2.43Q39.72-2.15 40.19-2.15ZM53.36-10.64L53.30-7.59L52.22-7.67Q50.66-7.67 50.22-6.69L50.22-6.69L50.22 0L46.93 0L46.93-10.57L50.02-10.57L50.13-9.21Q50.96-10.76 52.44-10.76L52.44-10.76Q52.97-10.76 53.36-10.64L53.36-10.64Z"></path></g></g></svg><style>@media (prefers-color-scheme: light) { :root { filter: none; } }
@media (prefers-color-scheme: dark) { :root { filter: none; } }
</style></svg>